<svg width="152" height="36" viewBox="0 0 152 36" fill="none" xmlns="http://www.w3.org/2000/svg">
<path d="M0 6.75C0 4.67893 1.67893 3 3.75 3H11.25C13.3211 3 15 4.67893 15 6.75V14.1144C15.0002 14.1594 15.0003 14.2046 15.0003 14.25C15.0003 16.3181 16.6744 17.9952 18.7413 18C18.7442 18 18.7471 18 18.75 18H26.25C28.3211 18 30 19.6789 30 21.75V29.25C30 31.3211 28.3211 33 26.25 33H18.75C16.6789 33 15 31.3211 15 29.25V21.75C15 21.7396 15 21.7292 15.0001 21.7188C14.9834 19.6621 13.3109 18 11.2503 18C11.2406 18 11.2309 18 11.2212 18H3.75C1.67893 18 0 16.3211 0 14.25V6.75Z" fill="#290161"/>
<path fill-rule="evenodd" clip-rule="evenodd" d="M71.1144 25.0198C70.0644 25.0198 69.1269 24.7648 68.3019 24.2548C67.4769 23.7448 66.8244 23.0473 66.3444 22.1623C65.8644 21.2773 65.6244 20.2723 65.6244 19.1473C65.6244 18.0223 65.8644 17.0248 66.3444 16.1548C66.8244 15.2698 67.4769 14.5798 68.3019 14.0848C69.1269 13.5748 70.0644 13.3198 71.1144 13.3198C71.9544 13.3198 72.6894 13.4773 73.3194 13.7923C73.9494 14.1073 74.4594 14.5498 74.8494 15.1198V8.5498H77.7294V24.7498H75.1644L74.8494 23.1523C74.4894 23.6473 74.0094 24.0823 73.4094 24.4573C72.8244 24.8323 72.0594 25.0198 71.1144 25.0198ZM71.7219 22.4998C72.6519 22.4998 73.4094 22.1923 73.9944 21.5773C74.5944 20.9473 74.8944 20.1448 74.8944 19.1698C74.8944 18.1948 74.5944 17.3998 73.9944 16.7848C73.4094 16.1548 72.6519 15.8398 71.7219 15.8398C70.8069 15.8398 70.0494 16.1473 69.4494 16.7623C68.8494 17.3773 68.5494 18.1723 68.5494 19.1473C68.5494 20.1223 68.8494 20.9248 69.4494 21.5548C70.0494 22.1848 70.8069 22.4998 71.7219 22.4998Z" fill="#290161"/>
<path d="M41.555 24.0073C42.695 24.6823 44.06 25.0198 45.65 25.0198C47.54 25.0198 49.085 24.5623 50.285 23.6473C51.5 22.7323 52.2575 21.4648 52.5575 19.8448H49.385C49.19 20.6548 48.77 21.2923 48.125 21.7573C47.495 22.2073 46.655 22.4323 45.605 22.4323C44.15 22.4323 43.01 21.9448 42.185 20.9698C41.36 19.9798 40.9475 18.6223 40.9475 16.8973C40.9475 15.1723 41.36 13.8148 42.185 12.8248C43.01 11.8348 44.15 11.3398 45.605 11.3398C46.655 11.3398 47.495 11.5873 48.125 12.0823C48.77 12.5623 49.19 13.2298 49.385 14.0848H52.5575C52.2575 12.3898 51.5 11.0773 50.285 10.1473C49.085 9.2023 47.54 8.72981 45.65 8.72981C44.06 8.72981 42.695 9.07481 41.555 9.76481C40.415 10.4548 39.5375 11.4148 38.9225 12.6448C38.3075 13.8748 38 15.2923 38 16.8973C38 18.5023 38.3075 19.9198 38.9225 21.1498C39.5375 22.3648 40.415 23.3173 41.555 24.0073Z" fill="#290161"/>
<path fill-rule="evenodd" clip-rule="evenodd" d="M56.1194 24.2773C56.9894 24.7723 57.9644 25.0198 59.0444 25.0198C60.1094 25.0198 61.0769 24.7723 61.9469 24.2773C62.8169 23.7823 63.4994 23.0998 63.9944 22.2298C64.5044 21.3448 64.7594 20.3248 64.7594 19.1698C64.7594 18.0148 64.5044 17.0023 63.9944 16.1323C63.4994 15.2473 62.8169 14.5573 61.9469 14.0623C61.0919 13.5673 60.1319 13.3198 59.0669 13.3198C57.9869 13.3198 57.0119 13.5673 56.1419 14.0623C55.2869 14.5573 54.6044 15.2473 54.0944 16.1323C53.5844 17.0023 53.3294 18.0148 53.3294 19.1698C53.3294 20.3248 53.5769 21.3448 54.0719 22.2298C54.5819 23.0998 55.2644 23.7823 56.1194 24.2773ZM61.0019 21.6898C60.4469 22.2448 59.7944 22.5223 59.0444 22.5223C58.2944 22.5223 57.6419 22.2448 57.0869 21.6898C56.5469 21.1198 56.2769 20.2798 56.2769 19.1698C56.2769 18.0598 56.5469 17.2273 57.0869 16.6723C57.6419 16.1023 58.3019 15.8173 59.0669 15.8173C59.8019 15.8173 60.4469 16.1023 61.0019 16.6723C61.5569 17.2273 61.8344 18.0598 61.8344 19.1698C61.8344 20.2798 61.5569 21.1198 61.0019 21.6898Z" fill="#290161"/>
<path fill-rule="evenodd" clip-rule="evenodd" d="M81.7421 24.2998C82.6121 24.7798 83.6096 25.0198 84.7346 25.0198C85.6346 25.0198 86.4371 24.8548 87.1421 24.5248C87.8621 24.1948 88.4621 23.7448 88.9421 23.1748C89.4371 22.5898 89.7896 21.9448 89.9996 21.2398H87.0746C86.8796 21.6598 86.5796 22.0048 86.1746 22.2748C85.7846 22.5298 85.2971 22.6573 84.7121 22.6573C83.9321 22.6573 83.2646 22.4098 82.7096 21.9148C82.1696 21.4198 81.8696 20.7373 81.8096 19.8673H90.2921C90.3071 19.6723 90.3146 19.4848 90.3146 19.3048C90.3296 19.1248 90.3371 18.9523 90.3371 18.7873C90.3371 17.7673 90.0971 16.8448 89.6171 16.0198C89.1521 15.1798 88.4996 14.5198 87.6596 14.0398C86.8196 13.5598 85.8521 13.3198 84.7571 13.3198C83.5871 13.3198 82.5671 13.5748 81.6971 14.0848C80.8421 14.5798 80.1671 15.2773 79.6721 16.1773C79.1921 17.0773 78.9521 18.1048 78.9521 19.2598C78.9521 20.3998 79.1996 21.4048 79.6946 22.2748C80.1896 23.1448 80.8721 23.8198 81.7421 24.2998ZM82.8896 16.2673C83.4296 15.8623 84.0521 15.6598 84.7571 15.6598C85.4921 15.6598 86.1071 15.8773 86.6021 16.3123C87.0971 16.7473 87.3671 17.3323 87.4121 18.0673H81.8546C82.0046 17.2573 82.3496 16.6573 82.8896 16.2673Z" fill="#290161"/>
<path d="M96.8769 25.0198C95.7369 25.0198 94.7319 24.7723 93.8619 24.2773C92.9919 23.7823 92.3019 23.0923 91.7919 22.2073C91.2969 21.3223 91.0494 20.3098 91.0494 19.1698C91.0494 18.0298 91.2969 17.0173 91.7919 16.1323C92.3019 15.2473 92.9919 14.5573 93.8619 14.0623C94.7319 13.5673 95.7369 13.3198 96.8769 13.3198C98.3019 13.3198 99.5019 13.6948 100.477 14.4448C101.452 15.1798 102.074 16.1998 102.344 17.5048H99.3069C99.1569 16.9648 98.8569 16.5448 98.4069 16.2448C97.9719 15.9298 97.4544 15.7723 96.8544 15.7723C96.0594 15.7723 95.3844 16.0723 94.8294 16.6723C94.2744 17.2723 93.9969 18.1048 93.9969 19.1698C93.9969 20.2348 94.2744 21.0673 94.8294 21.6673C95.3844 22.2673 96.0594 22.5673 96.8544 22.5673C97.4544 22.5673 97.9719 22.4173 98.4069 22.1173C98.8569 21.8173 99.1569 21.3898 99.3069 20.8348H102.344C102.074 22.0948 101.452 23.1073 100.477 23.8723C99.5019 24.6373 98.3019 25.0198 96.8769 25.0198Z" fill="#290161"/>
<path d="M106.386 15.6823L106.116 13.5898H103.551V24.7498H106.431V19.6648C106.431 18.8098 106.566 18.1423 106.836 17.6623C107.121 17.1823 107.511 16.8448 108.006 16.6498C108.501 16.4548 109.063 16.3573 109.693 16.3573H110.503V13.3198C109.558 13.3198 108.733 13.5373 108.028 13.9723C107.338 14.3923 106.791 14.9623 106.386 15.6823Z" fill="#290161"/>
<path fill-rule="evenodd" clip-rule="evenodd" d="M114.969 25.0198C114.009 25.0198 113.221 24.8698 112.606 24.5698C111.991 24.2548 111.534 23.8423 111.234 23.3323C110.934 22.8223 110.784 22.2598 110.784 21.6448C110.784 20.6098 111.189 19.7698 111.999 19.1248C112.809 18.4798 114.024 18.1573 115.644 18.1573H118.479V17.8873C118.479 17.1223 118.261 16.5598 117.826 16.1998C117.391 15.8398 116.851 15.6598 116.206 15.6598C115.621 15.6598 115.111 15.8023 114.676 16.0873C114.241 16.3573 113.971 16.7623 113.866 17.3023H111.054C111.129 16.4923 111.399 15.7873 111.864 15.1873C112.344 14.5873 112.959 14.1298 113.709 13.8148C114.459 13.4848 115.299 13.3198 116.229 13.3198C117.819 13.3198 119.071 13.7173 119.986 14.5123C120.901 15.3073 121.359 16.4323 121.359 17.8873V24.7498H118.906L118.636 22.9498C118.306 23.5498 117.841 24.0448 117.241 24.4348C116.656 24.8248 115.899 25.0198 114.969 25.0198ZM115.621 22.7698C116.446 22.7698 117.084 22.4998 117.534 21.9598C117.999 21.4198 118.291 20.7523 118.411 19.9573H115.959C115.194 19.9573 114.646 20.0998 114.316 20.3848C113.986 20.6548 113.821 20.9923 113.821 21.3973C113.821 21.8323 113.986 22.1698 114.316 22.4098C114.646 22.6498 115.081 22.7698 115.621 22.7698Z" fill="#290161"/>
<path d="M124.287 9.4048C123.612 9.9748 123.275 10.9348 123.275 12.2848V13.5898H121.745V15.9973H123.275V24.7498H126.155V15.9973H130.596V20.8573C130.596 22.3123 130.948 23.3248 131.653 23.8948C132.358 24.4648 133.296 24.7498 134.466 24.7498H136.423V22.2973H135.028C134.458 22.2973 134.053 22.1998 133.813 22.0048C133.588 21.7948 133.476 21.4198 133.476 20.8798V15.9973H136.491V13.5898H133.476V10.5973H130.933L130.596 13.5898H126.155V12.2848C126.155 11.8198 126.26 11.4898 126.47 11.2948C126.68 11.0998 127.032 11.0023 127.527 11.0023H128.315V8.5498H127.077C125.907 8.5498 124.977 8.8348 124.287 9.4048Z" fill="#290161"/>
<path d="M137.366 25.6048V28.3498H151.758V25.6048H137.366Z" fill="#290161"/>
</svg>
